<svg width="32" height="32" viewBox="0 0 32 32" fill="none" xmlns="http://www.w3.org/2000/svg">
<g opacity="0.95">
<path d="M16.0001 21.7859C15.0268 21.7899 14.0664 21.5773 13.1977 21.1658C12.329 20.7543 11.5766 20.1555 11.0024 19.4186L7.00006 21.5742C7.15236 21.7389 7.33266 21.8787 7.53371 21.988L14.6557 25.8374C15.072 26.0368 15.5327 26.1407 16.0001 26.1407C16.4675 26.1407 16.9282 26.0368 17.3444 25.8374L24.4664 21.988C24.6675 21.8787 24.8478 21.7389 25.0001 21.5742L21.0081 19.3801C20.4372 20.1255 19.6852 20.7325 18.8143 21.1509C17.9434 21.5692 16.9786 21.787 16.0001 21.7859Z" fill="url(#paint0_linear_7707_2)"/>
<path d="M9.73438 15.9772C9.73803 14.6086 10.3281 13.2892 11.3919 12.2711C12.4556 11.253 13.9185 10.6077 15.5007 10.4584V6.31006C15.2607 6.35297 15.0297 6.42742 14.816 6.53081L7.39148 10.21C6.98793 10.4422 6.65238 10.7514 6.41113 11.1137C6.16983 11.4759 6.02938 11.8813 6.00073 12.298V19.6564C6.00403 19.8687 6.04363 20.0795 6.11838 20.2819L10.2907 18.2123C9.92588 17.5088 9.73638 16.7475 9.73438 15.9772Z" fill="url(#paint1_linear_7707_2)"/>
<path d="M24.6819 10.2075L17.6481 6.53068C17.4457 6.42733 17.2269 6.35292 16.9995 6.31006V10.4464C17.955 10.5447 18.8718 10.8449 19.676 11.3232C20.4802 11.8014 21.1494 12.4443 21.6296 13.1999C22.1098 13.9556 22.3876 14.803 22.4407 15.6738C22.4938 16.5447 22.3207 17.4146 21.9353 18.2137L25.888 20.2819C25.9588 20.0796 25.9964 19.869 25.9995 19.6569V12.3033C25.9739 11.8852 25.8415 11.4783 25.6129 11.1146C25.3842 10.7509 25.0655 10.4404 24.6819 10.2075Z" fill="url(#paint2_linear_7707_2)"/>
<path d="M29.8058 6.52219L18.1942 0.468867C17.5133 0.16054 16.7619 0 16 0C15.2381 0 14.4868 0.16054 13.8058 0.468867L2.1942 6.52219C1.55685 6.89699 1.0262 7.40182 0.645 7.9959C0.26385 8.58997 0.0429 9.25661 0 9.94195V22.0485C0.0421 22.7354 0.262651 23.4036 0.643801 23.9993C1.02495 24.5951 1.55605 25.1015 2.1942 25.4778L13.8058 31.5313C14.4868 31.8395 15.2381 32 16 32C16.7619 32 17.5133 31.8395 18.1942 31.5313L29.8058 25.4778C30.444 25.1015 30.9751 24.5951 31.3562 23.9993C31.7374 23.4036 31.9579 22.7354 32 22.0485V9.94195C31.9571 9.25661 31.7361 8.58997 31.355 7.9959C30.9738 7.40182 30.4432 6.89699 29.8058 6.52219ZM28.3149 20.656C28.2808 21.1836 28.1102 21.6967 27.8167 22.154C27.5232 22.6114 27.1149 23.0002 26.6246 23.2896L17.6797 27.9503C17.1572 28.1884 16.5801 28.3125 15.9947 28.3125C15.4094 28.3125 14.8322 28.1884 14.3097 27.9503L5.37535 23.2896C4.8851 23.0002 4.47685 22.6114 4.18335 22.154C3.8898 21.6967 3.71915 21.1836 3.68505 20.656V11.344C3.71915 10.8164 3.8898 10.3033 4.18335 9.84599C4.47685 9.38862 4.8851 8.99971 5.37535 8.71045L14.2992 4.04971C14.8217 3.8116 15.3988 3.68753 15.9842 3.68753C16.5696 3.68753 17.1468 3.8116 17.6693 4.04971L26.6142 8.71045C27.1063 8.99867 27.5166 9.38713 27.812 9.84455C28.1074 10.3019 28.2797 10.8155 28.3149 11.344V20.656Z" fill="url(#paint3_linear_7707_2)"/>
<path d="M11.4991 15.9999C11.4991 16.7576 11.763 17.4983 12.2575 18.1283C12.7519 18.7583 13.4548 19.2493 14.2771 19.5393C15.0993 19.8292 16.0041 19.9051 16.8771 19.7573C17.75 19.6095 18.5518 19.2446 19.1811 18.7088C19.8104 18.1731 20.239 17.4905 20.4127 16.7473C20.5863 16.0042 20.4972 15.2339 20.1566 14.5339C19.816 13.8338 19.2393 13.2355 18.4992 12.8146C17.7592 12.3936 16.8891 12.1689 15.9991 12.1689C14.8057 12.1689 13.6611 12.5726 12.8172 13.291C11.9732 14.0095 11.4991 14.9839 11.4991 15.9999Z" fill="url(#paint4_linear_7707_2)"/>
</g>
<defs>
<linearGradient id="paint0_linear_7707_2" x1="17.9597" y1="27.3108" x2="18.1344" y2="17.7542" gradientUnits="userSpaceOnUse">
<stop stop-color="#F35F2F"/>
<stop offset="1" stop-color="#F35F2F" stop-opacity="0.75"/>
</linearGradient>
<linearGradient id="paint1_linear_7707_2" x1="11.785" y1="22.7001" x2="13.1919" y2="3.04391" gradientUnits="userSpaceOnUse">
<stop stop-color="#F35F2F"/>
<stop offset="1" stop-color="#F35F2F" stop-opacity="0.75"/>
</linearGradient>
<linearGradient id="paint2_linear_7707_2" x1="22.4793" y1="22.7001" x2="23.9635" y2="3.05535" gradientUnits="userSpaceOnUse">
<stop stop-color="#F35F2F"/>
<stop offset="1" stop-color="#F35F2F" stop-opacity="0.75"/>
</linearGradient>
<linearGradient id="paint3_linear_7707_2" x1="19.4839" y1="37.5385" x2="21.6808" y2="-7.60423" gradientUnits="userSpaceOnUse">
<stop stop-color="#F35F2F"/>
<stop offset="1" stop-color="#F35F2F" stop-opacity="0.75"/>
</linearGradient>
<linearGradient id="paint4_linear_7707_2" x1="16.979" y1="21.157" x2="17.4271" y2="10.3412" gradientUnits="userSpaceOnUse">
<stop stop-color="#F35F2F"/>
<stop offset="1" stop-color="#F35F2F" stop-opacity="0.75"/>
</linearGradient>
</defs>
</svg>
